<svg width="225" height="225" viewBox="0 0 225 225" fill="none" xmlns="http://www.w3.org/2000/svg">
<circle cx="112.5" cy="112.5" r="112.5" fill="#2DD8A8"/>
<path d="M177.341 74.9728C192.954 66.1901 196.809 40.5372 193.687 43.4634C196.809 40.5372 168.702 43.4634 159.334 58.0986C159.334 52.2462 153.089 28.8325 143.721 49.32C134.349 69.8075 137.472 72.7337 137.472 78.586C137.472 84.4384 149.966 84.4384 149.966 84.4384C149.966 84.4384 149.414 95.63 155.664 95.63C161.909 95.63 164.484 98.043 186.342 89.2644C208.204 80.4817 183.586 74.9728 177.341 74.9728Z" fill="#77B255"/>
<path d="M139.031 135.653C105.398 167.171 50.0259 189.794 42.2172 182.476C34.4085 175.159 58.5545 123.269 92.183 91.7518C125.816 60.2341 143.107 60.4535 157.77 74.1905C172.429 87.9316 172.663 104.135 139.031 135.653V135.653Z" fill="#F4900C"/>
<path d="M136.615 98.2623C132.322 94.2393 124.38 86.7355 115.892 72.9902C112.19 75.2853 108.637 77.7841 105.252 80.4733C117.632 95.4271 141.12 102.48 136.615 98.2623ZM103.556 131.671C98.958 127.363 90.1733 119.048 81.0087 103.337C77.9688 106.791 75.0522 110.338 72.2637 113.974C84.6613 128.861 108.043 135.877 103.556 131.671ZM144.635 130.219C128.819 121.908 120.388 114.036 115.918 109.851C111.413 105.621 118.974 127.71 134.985 139.295C138.254 136.319 141.471 133.293 144.635 130.219V130.219ZM90.8269 168.81C94.8913 166.715 98.8901 164.511 102.818 162.2C88.3624 154.315 80.4301 146.956 76.168 142.962C72.0958 139.142 77.8728 156.815 90.8269 168.81Z" fill="#D67503"/>
</svg>
